<?xml version="1.0" encoding="UTF-8" standalone="no"?>
<!-- Created with Inkscape (http://www.inkscape.org/) -->

<svg
   xmlns:dc="http://purl.org/dc/elements/1.1/"
   xmlns:cc="http://creativecommons.org/ns#"
   xmlns:rdf="http://www.w3.org/1999/02/22-rdf-syntax-ns#"
   xmlns:svg="http://www.w3.org/2000/svg"
   xmlns="http://www.w3.org/2000/svg"
   xmlns:sodipodi="http://sodipodi.sourceforge.net/DTD/sodipodi-0.dtd"
   xmlns:inkscape="http://www.inkscape.org/namespaces/inkscape"
   version="1.1"
   id="svg2"
   xml:space="preserve"
   width="816"
   height="1122.5601"
   viewBox="0 0 816 1122.5601"
   sodipodi:docname="yogadragons-logo.svg"
   inkscape:version="0.92.3 (2405546, 2018-03-11)"
   inkscape:export-filename="/home/jarednielsen/apps/yogadragons.github.io/assets/yogadragons-logo.png"
   inkscape:export-xdpi="96"
   inkscape:export-ydpi="96"><metadata
     id="metadata8"><rdf:RDF><cc:Work
         rdf:about=""><dc:format>image/svg+xml</dc:format><dc:type
           rdf:resource="http://purl.org/dc/dcmitype/StillImage" /><dc:title></dc:title></cc:Work></rdf:RDF></metadata><defs
     id="defs6" /><sodipodi:namedview
     pagecolor="#ffffff"
     bordercolor="#666666"
     borderopacity="1"
     objecttolerance="10"
     gridtolerance="10"
     guidetolerance="10"
     inkscape:pageopacity="0"
     inkscape:pageshadow="2"
     inkscape:window-width="1920"
     inkscape:window-height="1145"
     id="namedview4"
     showgrid="false"
     inkscape:zoom="1.68187"
     inkscape:cx="404.48415"
     inkscape:cy="863.0887"
     inkscape:window-x="0"
     inkscape:window-y="0"
     inkscape:window-maximized="1"
     inkscape:current-layer="layer2" /><g
     inkscape:groupmode="layer"
     id="layer2"
     inkscape:label="circle"
     style="display:inline"
     sodipodi:insensitive="true"><circle
       id="path17"
       cx="418.45859"
       cy="214.27261"
       r="149.58972"
       style="fill:none;fill-opacity:1;stroke:#ff0000;stroke-width:0.99442875;stroke-miterlimit:4;stroke-dasharray:none;stroke-opacity:1" /></g><g
     inkscape:groupmode="layer"
     id="layer1"
     inkscape:label="dragon head"
     sodipodi:insensitive="true"><path
       style="fill:#000000;fill-opacity:1;stroke:#000000;stroke-width:1px;stroke-linecap:butt;stroke-linejoin:miter;stroke-opacity:1"
       d="m 361.50239,202.45323 c 3.8198,-4.11901 0.612,-6.67634 13.37797,-12.78339 4.96201,-0.21884 1.84162,-2.92458 19.91831,0.89186 l 45.18779,-42.21491 -1.18915,-2.6756 c 2.34867,-7.1415 3.13973,-14.62914 15.1617,-19.62102 20.88295,-2.95561 33.82311,-5.30024 40.1339,-7.13491 25.28622,-30.699473 64.86542,-53.458399 99.29424,-79.07865 -39.22651,30.97896 -81.35169,62.94884 -103.45628,98.40238 -5.64263,3.3985 -11.38853,6.28058 -18.13457,4.16203 l -4.75661,3.56746 c 5.43831,8.06402 3.67043,14.68681 -2.08102,20.51288 l -47.5661,24.37763 -6.54034,5.94576 -12.78339,9.51322 c -1.57727,3.36513 -3.35159,6.82879 -7.13492,11.29695 l -4.16203,1.48645 v -2.08102 l 2.67559,-5.64848 -5.35119,2.37831 0.29729,2.67559 5.64848,12.18882 -5.0539,3.56745 -8.91865,-12.18881 -10.40508,-12.4861 z"
       id="path4573"
       inkscape:connector-curvature="0"
       sodipodi:nodetypes="cccccccccccccccccccccccccc" /><path
       style="fill:#000000;fill-opacity:1;stroke:#000000;stroke-width:1px;stroke-linecap:butt;stroke-linejoin:miter;stroke-opacity:1"
       d="m 387.81239,237.23594 7.43221,6.3917 9.95915,-2.37831 32.55305,-10.10779 c 18.94836,-6.31061 41.08366,-18.3577 54.99831,-15.60763 l 17.09407,-2.6756 4.01339,-7.13491 -3.27017,0.14864 -23.78305,-2.22966 c -20.0926,5.70584 -32.14461,9.56968 -50.83628,7.13492 l -7.4322,-1.3378 -11.74288,2.97288 -9.06729,4.75661 c -6.56656,11.70774 -9.12544,13.56166 -19.91831,20.06695 z"
       id="path4591"
       inkscape:connector-curvature="0"
       sodipodi:nodetypes="cccccccccccccc" /></g><g
     inkscape:groupmode="layer"
     id="layer3"
     inkscape:label="fire"
     sodipodi:insensitive="true"><path
       style="fill:#000000;fill-opacity:1;stroke:#000000;stroke-width:1px;stroke-linecap:butt;stroke-linejoin:miter;stroke-opacity:1"
       d="m 372.50004,211.07013 -10.51072,0.84085 c -15.83169,11.78634 -32.56863,21.39562 -54.65577,5.04515 28.36742,37.81127 49.61062,-12.19244 68.52992,3.36343 z"
       id="path4594"
       inkscape:connector-curvature="0"
       sodipodi:nodetypes="ccccc" /><path
       style="fill:#000000;fill-opacity:1;stroke:#000000;stroke-width:1px;stroke-linecap:butt;stroke-linejoin:miter;stroke-opacity:1"
       d="m 363.25061,272.45275 c 5.11588,-9.15954 5.47367,-26.43632 24.56178,-35.21681 l 7.43221,6.3917 c -14.47237,-4.47747 -24.87111,13.77668 -31.99399,28.82511 z"
       id="path4596"
       inkscape:connector-curvature="0"
       sodipodi:nodetypes="cccc" /><path
       style="fill:#000000;fill-opacity:1;stroke:#000000;stroke-width:1px;stroke-linecap:butt;stroke-linejoin:miter;stroke-opacity:1"
       d="m 351.47859,227.88728 c -4.99914,12.93965 -13.72136,24.73374 -33.21389,33.21389 -106.46863,-35.21512 -16.73707,-201.120561 99.64166,-196.760743 13.72063,-1.423684 14.66093,-1.826939 12.19244,-7.567721 -8.22584,-12.19837 -4.56263,-6.21976 7.98815,-0.840858 4.83786,14.987124 -2.75072,24.644426 -23.54402,18.498873 -73.63874,-22.695167 -161.10777,74.971549 -119.82225,163.126429 13.97279,18.14168 40.27869,11.21897 56.75791,-9.66987 z"
       id="path4598"
       inkscape:connector-curvature="0"
       sodipodi:nodetypes="cccccccc" /><path
       style="fill:#000000;fill-opacity:1;stroke:#000000;stroke-width:1px;stroke-linecap:butt;stroke-linejoin:miter;stroke-opacity:1"
       d="M 426.73535,81.578022 C 271.91381,54.64047 256.75785,289.36903 336.34314,233.35285 275.13538,260.71714 279.58523,71.067291 426.73535,81.578022 Z"
       id="path4602"
       inkscape:connector-curvature="0"
       sodipodi:nodetypes="ccc" /><path
       style="fill:#000000;fill-opacity:1;stroke:#000000;stroke-width:1px;stroke-linecap:butt;stroke-linejoin:miter;stroke-opacity:1"
       d="m 378.47104,236.01856 c -50.00094,26.38333 -101.84291,35.61224 -55.4966,96.69866 -22.31914,-47.75403 11.49653,-74.51817 55.4966,-96.69866 z"
       id="path4602-3"
       inkscape:connector-curvature="0"
       sodipodi:nodetypes="ccc" /><path
       style="fill:#000000;fill-opacity:1;stroke:#000000;stroke-width:1px;stroke-linecap:butt;stroke-linejoin:miter;stroke-opacity:1"
       d="m 355.58608,243.72549 c -49.16008,28.48548 -83.34404,32.66925 -48.76974,72.73423 -19.79656,-38.5046 4.76967,-50.55373 48.76974,-72.73423 z"
       id="path4602-3-6"
       inkscape:connector-curvature="0"
       sodipodi:nodetypes="ccc" /><path
       style="fill:#000000;fill-opacity:1;stroke:#000000;stroke-width:0.66402382px;stroke-linecap:butt;stroke-linejoin:miter;stroke-opacity:1"
       d="m 373.01647,246.06281 c -60.76229,14.06542 -75.72676,116.80881 0.24335,91.80518 -60.40357,8.92109 -55.4912,-71.45667 -0.24335,-91.80518 z"
       id="path4602-2"
       inkscape:connector-curvature="0"
       sodipodi:nodetypes="ccc" /><path
       style="fill:#000000;fill-opacity:1;stroke:#000000;stroke-width:1px;stroke-linecap:butt;stroke-linejoin:miter;stroke-opacity:1"
       d="m 268.65409,220.31956 c 9.41388,31.68501 22.17961,37.76067 38.25903,41.20203 -34.68951,3.24704 -31.66285,-4.92306 -38.25903,-41.20203 z"
       id="path4755"
       inkscape:connector-curvature="0"
       sodipodi:nodetypes="ccc" /><path
       style="fill:#000000;fill-opacity:1;stroke:#000000;stroke-width:1px;stroke-linecap:butt;stroke-linejoin:miter;stroke-opacity:1"
       d="m 304.81098,266.14632 c -17.86196,3.92759 -14.7645,15.14721 -15.97631,23.54402 -1.74571,-9.84414 -16.13582,-27.18873 15.97631,-23.54402 z"
       id="path4757"
       inkscape:connector-curvature="0"
       sodipodi:nodetypes="ccc" /><path
       style="fill:#000000;fill-opacity:1;stroke:#000000;stroke-width:0.92290747px;stroke-linecap:butt;stroke-linejoin:miter;stroke-opacity:1"
       d="M 465.07283,92.201308 C 279.72353,69.863013 273.30371,267.57646 356.84386,207.89056 276.22181,241.34101 306.14328,76.61487 465.07283,92.201308 Z"
       id="path4602-9"
       inkscape:connector-curvature="0"
       sodipodi:nodetypes="ccc" /></g><g
     inkscape:groupmode="layer"
     id="layer4"
     inkscape:label="wing"><path
       style="fill:#000000;fill-opacity:1;stroke:#000000;stroke-width:1px;stroke-linecap:butt;stroke-linejoin:miter;stroke-opacity:1"
       d="m 567.92801,222.88288 c -102.14028,-17.5237 3.78893,25.13573 -67.68907,116.87924 21.91078,-16.58693 59.38261,-48.7051 67.68907,-116.87924 z"
       id="path4600"
       inkscape:connector-curvature="0"
       sodipodi:nodetypes="ccc" /><path
       style="fill:#000000;fill-opacity:1;stroke:#000000;stroke-width:0.8516565px;stroke-linecap:butt;stroke-linejoin:miter;stroke-opacity:1"
       d="m 515.4916,254.96566 c -8.41124,25.83939 -34.14009,81.20577 -54.47595,103.57428 16.04543,-13.7661 66.74143,-37.10478 54.47595,-103.57428 z"
       id="path4600-6"
       inkscape:connector-curvature="0"
       sodipodi:nodetypes="ccc" /><path
       style="fill:#000000;fill-opacity:1;stroke:#000000;stroke-width:0.67339915px;stroke-linecap:butt;stroke-linejoin:miter;stroke-opacity:1"
       d="m 481.92357,285.31456 c -8.35642,19.21401 -28.99574,59.05017 -51.72685,77.99433 22.70887,-8.8608 57.90529,-20.73436 51.72685,-77.99433 z"
       id="path4600-6-7"
       inkscape:connector-curvature="0"
       sodipodi:nodetypes="ccc" /><path
       style="fill:#000000;fill-opacity:1;stroke:#000000;stroke-width:0.52328771px;stroke-linecap:butt;stroke-linejoin:miter;stroke-opacity:1"
       d="m 443.69095,327.56788 c -15.61295,19.07826 -31.37216,33.62321 -50.55746,33.78061 37.88305,7.65283 52.64057,-10.80222 50.55746,-33.78061 z"
       id="path4600-6-7-5"
       inkscape:connector-curvature="0"
       sodipodi:nodetypes="ccc" /><path
       style="fill:#000000;fill-opacity:1;stroke:#000000;stroke-width:0.448232px;stroke-linecap:butt;stroke-linejoin:miter;stroke-opacity:1"
       d="m 421.72471,333.92922 c -16.97315,9.15668 -35.75836,22.12023 -54.1148,20.36959 29.61764,8.89481 46.9859,4.41896 54.1148,-20.36959 z"
       id="path4600-6-7-5-3"
       inkscape:connector-curvature="0"
       sodipodi:nodetypes="ccc" /><path
       style="fill:#000000;fill-opacity:1;stroke:#000000;stroke-width:0.3637943px;stroke-linecap:butt;stroke-linejoin:miter;stroke-opacity:1"
       d="m 392.73063,337.108 c -15.82313,7.07351 -35.70022,9.00557 -47.86885,7.069 17.2453,10.88297 44.91169,9.56808 47.86885,-7.069 z"
       id="path4600-6-7-5-3-5"
       inkscape:connector-curvature="0"
       sodipodi:nodetypes="ccc" /></g></svg>