<?xml version="1.0" encoding="UTF-8" standalone="no"?>
<!-- Created with Inkscape (http://www.inkscape.org/) -->

<svg
   xmlns:dc="http://purl.org/dc/elements/1.1/"
   xmlns:cc="http://creativecommons.org/ns#"
   xmlns:rdf="http://www.w3.org/1999/02/22-rdf-syntax-ns#"
   xmlns:svg="http://www.w3.org/2000/svg"
   xmlns="http://www.w3.org/2000/svg"
   xmlns:sodipodi="http://sodipodi.sourceforge.net/DTD/sodipodi-0.dtd"
   xmlns:inkscape="http://www.inkscape.org/namespaces/inkscape"
   version="1.1"
   id="svg2"
   xml:space="preserve"
   width="816"
   height="1122.5601"
   viewBox="0 0 816 1122.5601"
   sodipodi:docname="yogadragons-logo.svg"
   inkscape:version="0.92.3 (2405546, 2018-03-11)"
   inkscape:export-filename="/home/jarednielsen/apps/yogadragons.github.io/assets/yogadragons-logo.png"
   inkscape:export-xdpi="96"
   inkscape:export-ydpi="96"><metadata
     id="metadata8"><rdf:RDF><cc:Work
         rdf:about=""><dc:format>image/svg+xml</dc:format><dc:type
           rdf:resource="http://purl.org/dc/dcmitype/StillImage" /><dc:title /></cc:Work></rdf:RDF></metadata><defs
     id="defs6" /><sodipodi:namedview
     pagecolor="#ffffff"
     bordercolor="#666666"
     borderopacity="1"
     objecttolerance="10"
     gridtolerance="10"
     guidetolerance="10"
     inkscape:pageopacity="0"
     inkscape:pageshadow="2"
     inkscape:window-width="1920"
     inkscape:window-height="1145"
     id="namedview4"
     showgrid="false"
     inkscape:zoom="2"
     inkscape:cx="402.28728"
     inkscape:cy="871.3915"
     inkscape:window-x="0"
     inkscape:window-y="0"
     inkscape:window-maximized="1"
     inkscape:current-layer="layer4" /><g
     inkscape:groupmode="layer"
     id="layer2"
     inkscape:label="circle"
     style="display:none"
     sodipodi:insensitive="true"><circle
       id="path17"
       cx="418.45859"
       cy="214.27261"
       r="149.58972"
       style="fill:none;fill-opacity:1;stroke:#ff0000;stroke-width:0.99442875;stroke-miterlimit:4;stroke-dasharray:none;stroke-opacity:1" /></g><g
     inkscape:groupmode="layer"
     id="layer1"
     inkscape:label="dragon head"><path
       style="fill:#000000;fill-opacity:1;stroke:#000000;stroke-width:1px;stroke-linecap:butt;stroke-linejoin:miter;stroke-opacity:1"
       d="m 361.50239,202.45323 c -0.49088,-2.11232 6.26047,-11.35863 13.37797,-12.78339 2.73235,0.52438 2.62992,3.22419 19.91831,0.89186 23.78214,-7.57574 30.16415,-35.43563 45.18779,-42.21491 l 3.41882,-3.71611 c 2.34867,-7.1415 -1.46824,-13.58863 10.55373,-18.58051 34.24753,-6.00968 29.71497,7.09162 44.1339,-3.13491 C 519.8494,102.39775 551.54228,53.536471 582.78893,36.976259 536.71885,62.095394 515.30771,169.1615 468.9584,145.86956 c -10.82847,6.38366 -0.81693,22.224 -11.44576,33.35051 6.83411,-46.49776 -25.91859,6.34562 -42.95797,15.10746 l -3.70244,2.47722 -12.78339,9.51322 c -2.57283,2.36957 -2.10768,3.60565 -4.55979,8.98459 -1.89335,-2.59315 -2.21125,-3.10123 -4.06157,-3.93069 -2.86381,-0.54266 -4.94399,-1.0813 -5.35119,2.37831 0.16104,5.8425 3.72328,10.06851 5.94577,14.86441 -7.61561,-3.73563 -11.13913,-4.69647 -13.97255,-8.62136 -4.73601,-5.95367 -12.01678,-6.2284 -14.56712,-17.54 z"
       id="path4573"
       inkscape:connector-curvature="0"
       sodipodi:nodetypes="ccccccccccccccccccc" /><path
       style="fill:#000000;fill-opacity:1;stroke:#000000;stroke-width:1px;stroke-linecap:butt;stroke-linejoin:miter;stroke-opacity:1"
       d="m 387.81239,237.23594 7.43221,6.3917 c 2.64786,0.047 3.2162,2.69351 9.95915,-2.37831 -6.76025,-8.46726 20.43182,-7.10622 32.55305,-10.10779 18.94836,-6.31061 45.60327,-23.61306 54.99831,-15.60763 20.7428,-3.01661 17.25019,2.25982 24.89132,-17.69355 -11.58858,10.05183 -19.14306,8.00724 -30.83708,5.80202 -31.08744,2.62899 -33.28147,10.2948 -58.26848,5.79712 -0.92365,5.74132 -1.34165,11.65767 -9.32541,14.9551 -2.50584,-4.72276 -6.75368,-6.39703 -11.48476,-7.22561 6.20848,12.28842 -0.29494,13.35151 -19.91831,20.06695 z"
       id="path4591"
       inkscape:connector-curvature="0"
       sodipodi:nodetypes="ccccccccccc" /><path
       style="fill:#000000;fill-opacity:1;stroke:#000000;stroke-width:1px;stroke-linecap:butt;stroke-linejoin:miter;stroke-opacity:1"
       d="m 533.24948,118.73595 c 0.48055,47.58545 -56.24895,44.98813 -61.43882,52.40874 -5.83925,8.34911 88.97765,-36.15629 74.71737,45.58166 40.73519,-30.82997 -10.5692,-93.5543 -13.27855,-97.9904 z"
       id="path4600-67"
       inkscape:connector-curvature="0"
       sodipodi:nodetypes="cscc" /></g><g
     inkscape:groupmode="layer"
     id="layer3"
     inkscape:label="fire"
     sodipodi:insensitive="true"><path
       style="fill:#000000;fill-opacity:1;stroke:#000000;stroke-width:1px;stroke-linecap:butt;stroke-linejoin:miter;stroke-opacity:1"
       d="m 363.25061,272.45275 c 5.11588,-9.15954 5.47367,-26.43632 24.56178,-35.21681 l 7.43221,6.3917 c -14.47237,-4.47747 -24.87111,13.77668 -31.99399,28.82511 z"
       id="path4596"
       inkscape:connector-curvature="0"
       sodipodi:nodetypes="cccc" /><path
       style="fill:#000000;fill-opacity:1;stroke:#000000;stroke-width:1px;stroke-linecap:butt;stroke-linejoin:miter;stroke-opacity:1"
       d="m 369.50981,221.52332 c -16.74939,-6.72031 -48.54687,48.94733 -69.97925,35.30905 -75.68333,-51.25388 7.34322,-196.739182 118.3758,-191.241943 13.72063,-1.423684 14.66093,-3.076939 12.19244,-8.817721 -8.22584,-12.19837 -4.56263,-6.21976 7.98815,-0.840858 4.83786,14.987124 -2.22039,22.346329 -23.01369,16.200776 C 332.24398,46.997829 241.16588,192.572 320.39155,232.16665 c 18.46489,7.85933 36.35059,-22.80631 49.11826,-10.64333 z"
       id="path4598"
       inkscape:connector-curvature="0"
       sodipodi:nodetypes="cccccccc" /><path
       style="fill:#000000;fill-opacity:1;stroke:#000000;stroke-width:1px;stroke-linecap:butt;stroke-linejoin:miter;stroke-opacity:1"
       d="M 414.91124,78.967109 C 307.45342,48.831524 265.25808,267.76286 350.48079,218.10963 278.86197,228.09949 329.83711,54.773444 414.91124,78.967109 Z"
       id="path4602"
       inkscape:connector-curvature="0"
       sodipodi:nodetypes="ccc" /><path
       style="fill:#000000;fill-opacity:1;stroke:#000000;stroke-width:0.66402382px;stroke-linecap:butt;stroke-linejoin:miter;stroke-opacity:1"
       d="m 373.01647,241.82017 c -15.54558,9.81521 -18.36439,10.31454 -28.54193,12.18966 -54.91246,10.11713 -43.44027,104.13083 26.31041,85.62593 -55.43817,4.97973 -45.16891,-36.36356 -13.7953,-69.4383 7.79485,-8.2175 9.74521,-20.23636 16.02682,-28.37729 z"
       id="path4602-2"
       inkscape:connector-curvature="0"
       sodipodi:nodetypes="cscsc" /><path
       style="fill:#000000;fill-opacity:1;stroke:#000000;stroke-width:1px;stroke-linecap:butt;stroke-linejoin:miter;stroke-opacity:1"
       d="m 314.04581,266.50388 c -2.89766,3.89873 -5.72323,5.22676 -9.27263,7.29359 -10.60163,6.17337 -4.73346,26.16257 -2.4791,34.39618 -5.26818,-9.16169 -39.06581,-47.27698 -1.36019,-41.79794 7.99887,1.16232 7.1536,2.79149 13.11192,0.10817 z"
       id="path4757"
       inkscape:connector-curvature="0"
       sodipodi:nodetypes="cscsc" /></g><g
     inkscape:groupmode="layer"
     id="layer4"
     inkscape:label="wing"><path
       style="fill:#000000;fill-opacity:1;stroke:#000000;stroke-width:1px;stroke-linecap:butt;stroke-linejoin:miter;stroke-opacity:1"
       d="m 567.63072,196.91425 c -4.58207,21.88565 -20.51675,56.91517 -32.03497,30.88158 -11.64164,-26.31253 -17.54599,-8.84417 -17.54599,-8.84417 4.72313,-6.72205 26.14106,66.51393 -21.23542,122.68396 47.16591,-29.90105 74.10416,-77.43909 70.81638,-144.72137 z"
       id="path4600"
       inkscape:connector-curvature="0"
       sodipodi:nodetypes="csscc" /><path
       style="fill:#000000;fill-opacity:1;stroke:#000000;stroke-width:0.8516565px;stroke-linecap:butt;stroke-linejoin:miter;stroke-opacity:1"
       d="m 456.27567,237.04007 c 78.6794,27.23208 13.71228,118.52823 4.73998,121.49987 13.21407,-5.99836 109.06598,-118.12897 -4.73998,-121.49987 z"
       id="path4600-6"
       inkscape:connector-curvature="0"
       sodipodi:nodetypes="ccc" /><path
       style="fill:#000000;fill-opacity:1;stroke:#000000;stroke-width:0.67339915px;stroke-linecap:butt;stroke-linejoin:miter;stroke-opacity:1"
       d="m 461.2992,258.85872 c 20.60462,16.09422 20.97604,47.31523 -23.67786,103.03596 40.42565,-33.32823 73.59223,-94.32341 23.67786,-103.03596 z"
       id="path4600-6-7"
       inkscape:connector-curvature="0"
       sodipodi:nodetypes="ccc" /><path
       style="fill:#000000;fill-opacity:1;stroke:#000000;stroke-width:0.52328771px;stroke-linecap:butt;stroke-linejoin:miter;stroke-opacity:1"
       d="m 458.34859,281.02849 c -9.86295,45.82826 -30.66505,79.20989 -48.10035,82.86729 38.63305,-7.09717 64.21058,-68.625 48.10035,-82.86729 z"
       id="path4600-6-7-5"
       inkscape:connector-curvature="0"
       sodipodi:nodetypes="ccc" /><path
       style="fill:#000000;fill-opacity:1;stroke:#000000;stroke-width:0.448232px;stroke-linecap:butt;stroke-linejoin:miter;stroke-opacity:1"
       d="m 436.47471,312.67922 c -2.84967,7.79506 -35.6535,43.46912 -68.8648,41.61959 42.31749,16.32252 68.94602,-15.25404 68.8648,-41.61959 z"
       id="path4600-6-7-5-3"
       inkscape:connector-curvature="0"
       sodipodi:nodetypes="ccc" /><path
       style="fill:#000000;fill-opacity:1;stroke:#000000;stroke-width:0.3637943px;stroke-linecap:butt;stroke-linejoin:miter;stroke-opacity:1"
       d="m 392.73063,337.108 c -15.82313,7.07351 -35.70022,9.00557 -47.86885,7.069 17.2453,10.88297 44.91169,9.56808 47.86885,-7.069 z"
       id="path4600-6-7-5-3-5"
       inkscape:connector-curvature="0"
       sodipodi:nodetypes="ccc" /></g></svg>