<?xml version="1.0" encoding="UTF-8" standalone="no"?>
<!-- Created with Inkscape (http://www.inkscape.org/) -->

<svg
   xmlns:dc="http://purl.org/dc/elements/1.1/"
   xmlns:cc="http://creativecommons.org/ns#"
   xmlns:rdf="http://www.w3.org/1999/02/22-rdf-syntax-ns#"
   xmlns:svg="http://www.w3.org/2000/svg"
   xmlns="http://www.w3.org/2000/svg"
   xmlns:sodipodi="http://sodipodi.sourceforge.net/DTD/sodipodi-0.dtd"
   xmlns:inkscape="http://www.inkscape.org/namespaces/inkscape"
   version="1.1"
   id="svg2"
   xml:space="preserve"
   width="356"
   height="356"
   viewBox="0 0 356 356.00001"
   sodipodi:docname="yogadragons-logo.svg"
   inkscape:version="0.92.3 (2405546, 2018-03-11)"
   inkscape:export-filename="/home/jarednielsen/apps/yogadragons.github.io/assets/yogadragons-logo.png"
   inkscape:export-xdpi="96"
   inkscape:export-ydpi="96"><metadata
     id="metadata8"><rdf:RDF><cc:Work
         rdf:about=""><dc:format>image/svg+xml</dc:format><dc:type
           rdf:resource="http://purl.org/dc/dcmitype/StillImage" /><dc:title></dc:title></cc:Work></rdf:RDF></metadata><defs
     id="defs6" /><sodipodi:namedview
     pagecolor="#ffffff"
     bordercolor="#666666"
     borderopacity="1"
     objecttolerance="10"
     gridtolerance="10"
     guidetolerance="10"
     inkscape:pageopacity="0"
     inkscape:pageshadow="2"
     inkscape:window-width="1920"
     inkscape:window-height="1145"
     id="namedview4"
     showgrid="false"
     inkscape:zoom="1.4142136"
     inkscape:cx="211.62205"
     inkscape:cy="91.528123"
     inkscape:window-x="0"
     inkscape:window-y="0"
     inkscape:window-maximized="1"
     inkscape:current-layer="layer1"
     showguides="true"
     inkscape:guide-bbox="true"><sodipodi:guide
       position="178,262.125"
       orientation="1,0"
       id="guide883"
       inkscape:locked="false" /><sodipodi:guide
       position="-52.343751,178"
       orientation="0,1"
       id="guide885"
       inkscape:locked="false" /><sodipodi:guide
       position="300,309.00001"
       orientation="1,0"
       id="guide887"
       inkscape:locked="false" /></sodipodi:namedview><g
     inkscape:groupmode="layer"
     id="layer2"
     inkscape:label="circle"
     style="display:none"
     transform="translate(-269.86269,-7.6543125)"><circle
       id="path17"
       cx="446.45584"
       cy="186.26109"
       r="149.58972"
       style="fill:none;fill-opacity:1;stroke:#ff0000;stroke-width:0.99442875;stroke-miterlimit:4;stroke-dasharray:none;stroke-opacity:1" /><circle
       style="fill:#000000;fill-opacity:1;stroke:#ff0000;stroke-width:0.45648944;stroke-miterlimit:4;stroke-dasharray:none;stroke-opacity:1"
       id="path891"
       cx="447.86386"
       cy="185.65842"
       r="0.27175528" /></g><g
     inkscape:groupmode="layer"
     id="layer1"
     inkscape:label="dragon head"
     transform="translate(-269.86269,-7.6543125)"><path
       style="fill:#000000;fill-opacity:1;stroke:#000000;stroke-width:1px;stroke-linecap:butt;stroke-linejoin:miter;stroke-opacity:1"
       d="m 389.49965,174.44171 c -0.49088,-2.11232 6.26047,-11.35863 13.37797,-12.78339 2.73235,0.52438 2.62992,3.22419 19.91831,0.89186 23.78214,-7.57574 30.16415,-35.43563 45.18779,-42.21491 l 3.41882,-3.71611 c 2.34867,-7.1415 -1.46824,-13.58863 10.55373,-18.580514 34.24753,-6.00968 29.71497,7.091624 44.1339,-3.13491 C 547.84666,74.386226 579.53954,25.524947 610.78619,8.9647352 564.71611,34.08387 543.30497,141.14998 496.95566,117.85804 c -10.82847,6.38366 -0.81693,22.224 -11.44576,33.35051 6.83411,-46.49776 -25.91859,6.34562 -42.95797,15.10746 l -3.70244,2.47722 -12.78339,9.51322 c -2.57283,2.36957 -2.10768,3.60565 -4.55979,8.98459 -1.89335,-2.59315 -2.21125,-3.10123 -4.06157,-3.93069 -2.86381,-0.54266 -4.94399,-1.0813 -5.35119,2.37831 0.16104,5.8425 3.72328,10.06851 5.94577,14.86441 -7.61561,-3.73563 -11.13913,-4.69647 -13.97255,-8.62136 -4.73601,-5.95367 -12.01678,-6.2284 -14.56712,-17.54 z"
       id="path4573"
       inkscape:connector-curvature="0"
       sodipodi:nodetypes="ccccccccccccccccccc" /><path
       style="fill:#000000;fill-opacity:1;stroke:#000000;stroke-width:1px;stroke-linecap:butt;stroke-linejoin:miter;stroke-opacity:1"
       d="m 415.80965,209.22442 7.43221,6.3917 c 2.64786,0.047 3.2162,2.69351 9.95915,-2.37831 -6.76025,-8.46726 20.43182,-7.10622 32.55305,-10.10779 18.94836,-6.31061 45.60327,-23.61306 54.99831,-15.60763 20.7428,-3.01661 17.25019,2.25982 24.89132,-17.69355 -11.58858,10.05183 -19.14306,8.00724 -30.83708,5.80202 -31.08744,2.62899 -33.28147,10.2948 -58.26848,5.79712 -0.92365,5.74132 -1.34165,11.65767 -9.32541,14.9551 -2.50584,-4.72276 -6.75368,-6.39703 -11.48476,-7.22561 6.20848,12.28842 -0.29494,13.35151 -19.91831,20.06695 z"
       id="path4591"
       inkscape:connector-curvature="0"
       sodipodi:nodetypes="ccccccccccc" /><path
       style="fill:#000000;fill-opacity:1;stroke:#000000;stroke-width:1px;stroke-linecap:butt;stroke-linejoin:miter;stroke-opacity:1"
       d="m 561.24674,90.724426 c 0.48055,47.585454 -56.24895,44.988134 -61.43882,52.408744 -5.83925,8.34911 88.97765,-36.15629 74.71737,45.58166 40.73519,-30.82997 -10.5692,-93.554304 -13.27855,-97.990404 z"
       id="path4600-67"
       inkscape:connector-curvature="0"
       sodipodi:nodetypes="cscc" /></g><g
     inkscape:groupmode="layer"
     id="layer3"
     inkscape:label="fire"
     transform="translate(-269.86269,-7.6543125)"><path
       style="fill:#000000;fill-opacity:1;stroke:#000000;stroke-width:1px;stroke-linecap:butt;stroke-linejoin:miter;stroke-opacity:1"
       d="m 391.24787,244.44123 c 5.11588,-9.15954 5.47367,-26.43632 24.56178,-35.21681 l 7.43221,6.3917 c -14.47237,-4.47747 -24.87111,13.77668 -31.99399,28.82511 z"
       id="path4596"
       inkscape:connector-curvature="0"
       sodipodi:nodetypes="cccc" /><path
       style="fill:#000000;fill-opacity:1;stroke:#000000;stroke-width:1px;stroke-linecap:butt;stroke-linejoin:miter;stroke-opacity:1"
       d="m 397.50707,193.5118 c -16.74939,-6.72031 -48.54687,48.94733 -69.97925,35.30905 -75.68333,-51.25388 7.34322,-196.739186 118.3758,-191.241947 13.72063,-1.423684 14.66093,-3.076939 12.19244,-8.817721 -8.22584,-12.19837 -4.56263,-6.21976 7.98815,-0.840858 4.83786,14.987124 -2.22039,22.346329 -23.01369,16.200776 -82.82928,-25.134795 -173.90738,120.43938 -94.68171,160.03403 18.46489,7.85933 36.35059,-22.80631 49.11826,-10.64333 z"
       id="path4598"
       inkscape:connector-curvature="0"
       sodipodi:nodetypes="cccccccc" /><path
       style="fill:#000000;fill-opacity:1;stroke:#000000;stroke-width:1px;stroke-linecap:butt;stroke-linejoin:miter;stroke-opacity:1"
       d="M 445.02982,55.198226 C 337.572,25.062641 293.00534,234.75134 378.22805,185.09811 306.60923,195.08797 359.95569,31.004561 445.02982,55.198226 Z"
       id="path4602"
       inkscape:connector-curvature="0"
       sodipodi:nodetypes="ccc" /><path
       style="fill:#000000;fill-opacity:1;stroke:#000000;stroke-width:0.66402382px;stroke-linecap:butt;stroke-linejoin:miter;stroke-opacity:1"
       d="m 398.51373,211.80865 c -14.57331,12.82041 -17.11439,12.31454 -26.04193,14.18966 -54.64435,11.47737 -41.69027,103.50583 28.06041,85.00093 -52.68817,7.47973 -55.972,-45.02299 -18.2953,-70.6883 9.11807,-6.21122 7.99521,-19.61136 16.27682,-28.50229 z"
       id="path4602-2"
       inkscape:connector-curvature="0"
       sodipodi:nodetypes="cscsc" /></g><g
     inkscape:groupmode="layer"
     id="layer4"
     inkscape:label="wing"
     transform="translate(-269.86269,-7.6543125)"><path
       style="fill:#000000;fill-opacity:1;stroke:#000000;stroke-width:1px;stroke-linecap:butt;stroke-linejoin:miter;stroke-opacity:1"
       d="m 595.62798,168.90273 c -4.58207,21.88565 -20.51675,56.91517 -32.03497,30.88158 -11.64164,-26.31253 -17.54599,-8.84417 -17.54599,-8.84417 4.72313,-6.72205 26.14106,66.51393 -21.23542,122.68396 47.16591,-29.90105 74.10416,-77.43909 70.81638,-144.72137 z"
       id="path4600"
       inkscape:connector-curvature="0"
       sodipodi:nodetypes="csscc" /><path
       style="fill:#000000;fill-opacity:1;stroke:#000000;stroke-width:0.8516565px;stroke-linecap:butt;stroke-linejoin:miter;stroke-opacity:1"
       d="m 492.0511,219.98871 c 74.11323,39.76148 5.93621,106.56859 -3.03819,109.53971 15.60422,-6.13323 74.41941,-65.19802 49.11973,-121.99093 -8.08357,-18.14606 -3.91076,15.03731 -46.08154,12.45122 z"
       id="path4600-6"
       inkscape:connector-curvature="0"
       sodipodi:nodetypes="ccsc" /><path
       style="fill:#000000;fill-opacity:1;stroke:#000000;stroke-width:0.67339915px;stroke-linecap:butt;stroke-linejoin:miter;stroke-opacity:1"
       d="m 487.54646,242.0972 c 18.10462,18.34422 29.35991,60.5686 -22.67786,92.66096 42.55092,-21.43933 75.63339,-78.10529 22.67786,-92.66096 z"
       id="path4600-6-7"
       inkscape:connector-curvature="0"
       sodipodi:nodetypes="ccc" /><path
       style="fill:#000000;fill-opacity:1;stroke:#000000;stroke-width:0.52328771px;stroke-linecap:butt;stroke-linejoin:miter;stroke-opacity:1"
       d="m 475.09585,258.51697 c 21.5867,47.16164 -24.41505,73.20989 -41.85035,76.86729 40.1208,-6.22932 78.89507,-65.41322 41.85035,-76.86729 z"
       id="path4600-6-7-5"
       inkscape:connector-curvature="0"
       sodipodi:nodetypes="ccc" /><path
       style="fill:#000000;fill-opacity:1;stroke:#000000;stroke-width:0.448232px;stroke-linecap:butt;stroke-linejoin:miter;stroke-opacity:1"
       d="m 462.72197,284.1677 c 1.78942,5.75953 -5.01073,45.56011 -56.3648,46.36959 54.93659,0.92069 72.93986,-43.37943 56.3648,-46.36959 z"
       id="path4600-6-7-5-3"
       inkscape:connector-curvature="0"
       sodipodi:nodetypes="ccc" /><path
       style="fill:#000000;fill-opacity:1;stroke:#000000;stroke-width:0.3637943px;stroke-linecap:butt;stroke-linejoin:miter;stroke-opacity:1"
       d="m 445.35289,299.22148 c -4.32788,10.51805 -24.26089,33.44969 -60.04563,23.51094 38.58369,11.54979 69.83847,-13.62386 60.04563,-23.51094 z"
       id="path4600-6-7-5-3-5"
       inkscape:connector-curvature="0"
       sodipodi:nodetypes="ccc" /><path
       style="fill:#000000;fill-opacity:1;stroke:#000000;stroke-width:0.3637943px;stroke-linecap:butt;stroke-linejoin:miter;stroke-opacity:1"
       d="m 418.70044,307.60703 c -5.43404,8.51805 -24.99572,16.50775 -45.61885,9.01094 38.7453,13.63297 45.33981,-5.11077 45.61885,-9.01094 z"
       id="path4600-6-7-5-3-5-3"
       inkscape:connector-curvature="0"
       sodipodi:nodetypes="ccc" /></g></svg>