<?xml version="1.0" encoding="UTF-8" standalone="no"?>
<!-- Created with Inkscape (http://www.inkscape.org/) -->

<svg
   xmlns:dc="http://purl.org/dc/elements/1.1/"
   xmlns:cc="http://creativecommons.org/ns#"
   xmlns:rdf="http://www.w3.org/1999/02/22-rdf-syntax-ns#"
   xmlns:svg="http://www.w3.org/2000/svg"
   xmlns="http://www.w3.org/2000/svg"
   xmlns:sodipodi="http://sodipodi.sourceforge.net/DTD/sodipodi-0.dtd"
   xmlns:inkscape="http://www.inkscape.org/namespaces/inkscape"
   version="1.1"
   id="svg2"
   xml:space="preserve"
   width="816"
   height="1122.5601"
   viewBox="0 0 816 1122.5601"
   sodipodi:docname="yogadragons-logo.svg"
   inkscape:version="0.92.3 (2405546, 2018-03-11)"
   inkscape:export-filename="/home/jarednielsen/apps/yogadragons.github.io/assets/yogadragons-logo.png"
   inkscape:export-xdpi="96"
   inkscape:export-ydpi="96"><metadata
     id="metadata8"><rdf:RDF><cc:Work
         rdf:about=""><dc:format>image/svg+xml</dc:format><dc:type
           rdf:resource="http://purl.org/dc/dcmitype/StillImage" /><dc:title /></cc:Work></rdf:RDF></metadata><defs
     id="defs6" /><sodipodi:namedview
     pagecolor="#ffffff"
     bordercolor="#666666"
     borderopacity="1"
     objecttolerance="10"
     gridtolerance="10"
     guidetolerance="10"
     inkscape:pageopacity="0"
     inkscape:pageshadow="2"
     inkscape:window-width="1920"
     inkscape:window-height="1145"
     id="namedview4"
     showgrid="false"
     inkscape:zoom="2.8284271"
     inkscape:cx="381.87201"
     inkscape:cy="911.2571"
     inkscape:window-x="0"
     inkscape:window-y="0"
     inkscape:window-maximized="1"
     inkscape:current-layer="layer3" /><g
     inkscape:groupmode="layer"
     id="layer2"
     inkscape:label="circle"
     style="display:inline"
     sodipodi:insensitive="true"><circle
       id="path17"
       cx="418.45859"
       cy="214.27261"
       r="149.58972"
       style="fill:none;fill-opacity:1;stroke:#ff0000;stroke-width:0.99442875;stroke-miterlimit:4;stroke-dasharray:none;stroke-opacity:1" /></g><g
     inkscape:groupmode="layer"
     id="layer1"
     inkscape:label="dragon head"
     sodipodi:insensitive="true"><path
       style="fill:#000000;fill-opacity:1;stroke:#000000;stroke-width:1px;stroke-linecap:butt;stroke-linejoin:miter;stroke-opacity:1"
       d="m 361.50239,202.45323 c -0.49088,-2.11232 6.26047,-11.35863 13.37797,-12.78339 2.73235,0.52438 2.62992,3.22419 19.91831,0.89186 23.78214,-7.57574 30.16415,-35.43563 45.18779,-42.21491 l 3.41882,-3.71611 c 2.34867,-7.1415 -1.46824,-13.58863 10.55373,-18.58051 34.24753,-6.00968 29.71497,7.09162 44.1339,-3.13491 C 519.8494,102.39775 551.54228,53.536471 582.78893,36.976259 536.71885,62.095394 515.30771,169.1615 468.9584,145.86956 c -10.82847,6.38366 -0.81693,22.224 -11.44576,33.35051 6.83411,-46.49776 -25.91859,6.34562 -42.95797,15.10746 l -3.70244,2.47722 -12.78339,9.51322 c -2.57283,2.36957 -2.10768,3.60565 -4.55979,8.98459 -1.89335,-2.59315 -2.21125,-3.10123 -4.06157,-3.93069 -2.86381,-0.54266 -4.94399,-1.0813 -5.35119,2.37831 0.16104,5.8425 3.72328,10.06851 5.94577,14.86441 -7.61561,-3.73563 -11.13913,-4.69647 -13.97255,-8.62136 -4.73601,-5.95367 -12.01678,-6.2284 -14.56712,-17.54 z"
       id="path4573"
       inkscape:connector-curvature="0"
       sodipodi:nodetypes="ccccccccccccccccccc" /><path
       style="fill:#000000;fill-opacity:1;stroke:#000000;stroke-width:1px;stroke-linecap:butt;stroke-linejoin:miter;stroke-opacity:1"
       d="m 387.81239,237.23594 7.43221,6.3917 c 2.64786,0.047 3.2162,2.69351 9.95915,-2.37831 -6.76025,-8.46726 20.43182,-7.10622 32.55305,-10.10779 18.94836,-6.31061 45.60327,-23.61306 54.99831,-15.60763 20.7428,-3.01661 17.25019,2.25982 24.89132,-17.69355 -11.58858,10.05183 -19.14306,8.00724 -30.83708,5.80202 -31.08744,2.62899 -33.28147,10.2948 -58.26848,5.79712 -0.92365,5.74132 -1.34165,11.65767 -9.32541,14.9551 -2.50584,-4.72276 -6.75368,-6.39703 -11.48476,-7.22561 6.20848,12.28842 -0.29494,13.35151 -19.91831,20.06695 z"
       id="path4591"
       inkscape:connector-curvature="0"
       sodipodi:nodetypes="ccccccccccc" /><path
       style="fill:#000000;fill-opacity:1;stroke:#000000;stroke-width:1px;stroke-linecap:butt;stroke-linejoin:miter;stroke-opacity:1"
       d="m 533.24948,118.73595 c -3.05498,41.22149 -56.24895,44.98813 -61.43882,52.40874 -5.83925,8.34911 97.6241,-32.15629 83.36382,49.58166 25.73519,-46.82997 -16.38722,-92.95811 -21.925,-101.9904 z"
       id="path4600-67"
       inkscape:connector-curvature="0"
       sodipodi:nodetypes="cscc" /></g><g
     inkscape:groupmode="layer"
     id="layer3"
     inkscape:label="fire"><path
       style="fill:#000000;fill-opacity:1;stroke:#000000;stroke-width:1px;stroke-linecap:butt;stroke-linejoin:miter;stroke-opacity:1"
       d="m 372.50004,211.07013 -10.51072,0.84085 c -15.83169,11.78634 -32.56863,21.39562 -54.65577,5.04515 28.36742,37.81127 49.61062,-12.19244 68.52992,3.36343 z"
       id="path4594"
       inkscape:connector-curvature="0"
       sodipodi:nodetypes="ccccc" /><path
       style="fill:#000000;fill-opacity:1;stroke:#000000;stroke-width:1px;stroke-linecap:butt;stroke-linejoin:miter;stroke-opacity:1"
       d="m 363.25061,272.45275 c 5.11588,-9.15954 5.47367,-26.43632 24.56178,-35.21681 l 7.43221,6.3917 c -14.47237,-4.47747 -24.87111,13.77668 -31.99399,28.82511 z"
       id="path4596"
       inkscape:connector-curvature="0"
       sodipodi:nodetypes="cccc" /><path
       style="fill:#000000;fill-opacity:1;stroke:#000000;stroke-width:1px;stroke-linecap:butt;stroke-linejoin:miter;stroke-opacity:1"
       d="m 369.50981,221.52332 c -33.09668,13.365 -39.91164,21.54128 -52.32173,36.33162 -2.22591,4.25002 -13.19469,1.99973 -17.65752,-1.02257 -75.68333,-51.25388 7.34322,-196.739182 118.3758,-191.241943 13.72063,-1.423684 14.66093,-3.076939 12.19244,-8.817721 -8.22584,-12.19837 -4.56263,-6.21976 7.98815,-0.840858 4.83786,14.987124 -2.22039,22.346329 -23.01369,16.200776 -82.82928,-25.134795 -187.7254,129.343186 -111.68171,173.534026 7.37758,4.28729 10.37424,6.3699 14.763,3.50573 6.27948,-5.71246 31.65126,-23.85378 51.35526,-27.64906 z"
       id="path4598"
       inkscape:connector-curvature="0"
       sodipodi:nodetypes="ccsccccscc" /><path
       style="fill:#000000;fill-opacity:1;stroke:#000000;stroke-width:1px;stroke-linecap:butt;stroke-linejoin:miter;stroke-opacity:1"
       d="M 414.40083,84.431575 C 270.4222,70.741427 251.91493,282.34865 331.48079,234.10963 258.44776,246.22081 304.84142,75.062026 414.40083,84.431575 Z"
       id="path4602"
       inkscape:connector-curvature="0"
       sodipodi:nodetypes="ccc" /><path
       style="fill:#000000;fill-opacity:1;stroke:#000000;stroke-width:1px;stroke-linecap:butt;stroke-linejoin:miter;stroke-opacity:1"
       d="m 378.47104,236.01856 c -50.00094,26.38333 -101.84291,35.61224 -55.4966,96.69866 -22.31914,-47.75403 11.49653,-74.51817 55.4966,-96.69866 z"
       id="path4602-3"
       inkscape:connector-curvature="0"
       sodipodi:nodetypes="ccc" /><path
       style="fill:#000000;fill-opacity:1;stroke:#000000;stroke-width:1px;stroke-linecap:butt;stroke-linejoin:miter;stroke-opacity:1"
       d="m 355.76286,242.48805 c -39.26059,20.35375 -83.52082,33.90669 -48.94652,73.97167 -19.79656,-38.5046 0.52703,-47.19497 48.94652,-73.97167 z"
       id="path4602-3-6"
       inkscape:connector-curvature="0"
       sodipodi:nodetypes="ccc" /><path
       style="fill:#000000;fill-opacity:1;stroke:#000000;stroke-width:0.66402382px;stroke-linecap:butt;stroke-linejoin:miter;stroke-opacity:1"
       d="m 373.01647,246.06281 c -60.76229,15.83319 -75.72676,116.80881 0.24335,91.80518 -60.40357,8.92109 -53.01633,-68.45147 -0.24335,-91.80518 z"
       id="path4602-2"
       inkscape:connector-curvature="0"
       sodipodi:nodetypes="ccc" /><path
       style="fill:#000000;fill-opacity:1;stroke:#000000;stroke-width:1px;stroke-linecap:butt;stroke-linejoin:miter;stroke-opacity:1"
       d="m 268.95138,216.00888 c 5.25184,38.374 16.38249,42.07135 32.46191,45.51271 -34.68951,3.24704 -30.02777,-28.55747 -32.46191,-45.51271 z"
       id="path4755"
       inkscape:connector-curvature="0"
       sodipodi:nodetypes="ccc" /><path
       style="fill:#000000;fill-opacity:1;stroke:#000000;stroke-width:1px;stroke-linecap:butt;stroke-linejoin:miter;stroke-opacity:1"
       d="m 311.55622,263.62736 c -17.71331,4.37352 -23.96237,17.66617 -21.01214,28.44129 -6.13071,-10.66169 -12.06617,-25.69431 21.01214,-28.44129 z"
       id="path4757"
       inkscape:connector-curvature="0"
       sodipodi:nodetypes="ccc" /><path
       style="fill:#000000;fill-opacity:1;stroke:#000000;stroke-width:0.92290747px;stroke-linecap:butt;stroke-linejoin:miter;stroke-opacity:1"
       d="M 465.07283,98.918822 C 283.61262,54.306664 270.47528,276.06174 356.84386,207.89056 271.97917,244.16944 307.20394,68.129589 465.07283,98.918822 Z"
       id="path4602-9"
       inkscape:connector-curvature="0"
       sodipodi:nodetypes="ccc" /></g><g
     inkscape:groupmode="layer"
     id="layer4"
     inkscape:label="wing"
     sodipodi:insensitive="true"><path
       style="fill:#000000;fill-opacity:1;stroke:#000000;stroke-width:1px;stroke-linecap:butt;stroke-linejoin:miter;stroke-opacity:1"
       d="m 567.63072,196.91425 c -5.69418,27.19748 -3.86291,54.99866 -35.43882,24.15873 -8.48547,-8.28769 38.16187,39.99743 -6.38618,97.58167 19.23519,-22.82998 45.11278,-54.45812 41.825,-121.7404 z"
       id="path4600"
       inkscape:connector-curvature="0"
       sodipodi:nodetypes="cscc" /><path
       style="fill:#000000;fill-opacity:1;stroke:#000000;stroke-width:0.8516565px;stroke-linecap:butt;stroke-linejoin:miter;stroke-opacity:1"
       d="m 456.27567,237.04007 c 78.6794,27.23208 13.71228,118.52823 4.73998,121.49987 13.21407,-5.99836 109.06598,-118.12897 -4.73998,-121.49987 z"
       id="path4600-6"
       inkscape:connector-curvature="0"
       sodipodi:nodetypes="ccc" /><path
       style="fill:#000000;fill-opacity:1;stroke:#000000;stroke-width:0.67339915px;stroke-linecap:butt;stroke-linejoin:miter;stroke-opacity:1"
       d="m 461.2992,258.85872 c 20.60462,16.09422 20.97604,47.31523 -23.67786,103.03596 40.42565,-33.32823 73.59223,-94.32341 23.67786,-103.03596 z"
       id="path4600-6-7"
       inkscape:connector-curvature="0"
       sodipodi:nodetypes="ccc" /><path
       style="fill:#000000;fill-opacity:1;stroke:#000000;stroke-width:0.52328771px;stroke-linecap:butt;stroke-linejoin:miter;stroke-opacity:1"
       d="m 458.34859,281.02849 c -9.86295,45.82826 -30.66505,79.20989 -48.10035,82.86729 38.63305,-7.09717 64.21058,-68.625 48.10035,-82.86729 z"
       id="path4600-6-7-5"
       inkscape:connector-curvature="0"
       sodipodi:nodetypes="ccc" /><path
       style="fill:#000000;fill-opacity:1;stroke:#000000;stroke-width:0.448232px;stroke-linecap:butt;stroke-linejoin:miter;stroke-opacity:1"
       d="m 436.47471,312.67922 c -2.84967,7.79506 -35.6535,43.46912 -68.8648,41.61959 42.31749,16.32252 68.94602,-15.25404 68.8648,-41.61959 z"
       id="path4600-6-7-5-3"
       inkscape:connector-curvature="0"
       sodipodi:nodetypes="ccc" /><path
       style="fill:#000000;fill-opacity:1;stroke:#000000;stroke-width:0.3637943px;stroke-linecap:butt;stroke-linejoin:miter;stroke-opacity:1"
       d="m 392.73063,337.108 c -15.82313,7.07351 -35.70022,9.00557 -47.86885,7.069 17.2453,10.88297 44.91169,9.56808 47.86885,-7.069 z"
       id="path4600-6-7-5-3-5"
       inkscape:connector-curvature="0"
       sodipodi:nodetypes="ccc" /><path
       style="fill:#000000;fill-opacity:1;stroke:#000000;stroke-width:0.8516565px;stroke-linecap:butt;stroke-linejoin:miter;stroke-opacity:1"
       d="m 495.89726,223.24366 c 64.02945,71.43897 -12.40884,126.23598 -12.40884,126.23598 18.67828,-10.96457 106.84601,-90.68513 12.40884,-126.23598 z"
       id="path4600-6-3"
       inkscape:connector-curvature="0"
       sodipodi:nodetypes="ccc" /></g></svg>